<svg t="1638757385172" class="icon" viewBox="0 0 1024 1024" version="1.1" xmlns="http://www.w3.org/2000/svg" p-id="3857" width="128" height="128"><path d="M784 432v-64a32 32 0 0 0-32-32h-25.28a222.4 222.4 0 0 1-58.08 96zM873.76 637.76a72.96 72.96 0 0 1-17.76 2.24H816a48 48 0 0 0-33.92 14.08 45.76 45.76 0 0 0-5.6 6.88 59.52 59.52 0 0 0-4.32 7.68 48 48 0 0 0-4.16 17.12 44.96 44.96 0 0 0 13.12 33.6 53.6 53.6 0 0 0 38.56 16H864a32 32 0 0 0 32-32v-75.52a65.12 65.12 0 0 1-16 7.84zM109.28 418.4a42.08 42.08 0 0 0 30.72 13.6h215.36a222.4 222.4 0 0 1-58.08-96H140A46.24 46.24 0 0 0 96 384a52.96 52.96 0 0 0 0.96 9.76 49.44 49.44 0 0 0 12.32 24.64z" p-id="3858" fill="#00EBA4"></path><path d="M757.92 741.44A76.96 76.96 0 0 1 736 684.16a80 80 0 0 1 23.36-52.64A80 80 0 0 1 816 608h16v-112a32 32 0 0 0-32-32H144a80 80 0 0 1-48-16v448a32 32 0 0 0 32 32h672a32 32 0 0 0 32-32v-128h-12.32a85.28 85.28 0 0 1-61.76-26.56zM874.72 603.36a52.48 52.48 0 0 0 4.96-3.2 33.44 33.44 0 0 0 4.48-3.84A39.52 39.52 0 0 0 896 568a40 40 0 0 0-32-39.2V608a36.16 36.16 0 0 0 5.92-1.76zM544 240a16 16 0 0 0-16-16h-48v32h48a16 16 0 0 0 16-16zM560 304a16 16 0 0 0-16-16h-64v32h64a16 16 0 0 0 16-16z" p-id="3859" fill="#00EBA4"></path><path d="M326.08 320a192 192 0 0 0 80 112h212.16a191.04 191.04 0 0 0 80-112 108.96 108.96 0 0 0 3.2-16 175.04 175.04 0 0 0 2.56-32 192 192 0 1 0-384 0 175.04 175.04 0 0 0 2.88 32 108.96 108.96 0 0 0 3.2 16zM432 208a16 16 0 0 1 16-16h16v-16a16 16 0 0 1 32 0v16h16v-16a16 16 0 0 1 32 0v18.88A48 48 0 0 1 576 240a48.96 48.96 0 0 1-6.08 23.52A48 48 0 0 1 544 352v16a16 16 0 0 1-32 0v-16h-16v16a16 16 0 0 1-32 0v-16h-16a16 16 0 0 1 0-32v-96a16 16 0 0 1-16-16z" p-id="3860" fill="#00EBA4"></path></svg>
