<svg t="1639966944764" class="icon" viewBox="0 0 1024 1024" version="1.1" xmlns="http://www.w3.org/2000/svg" p-id="6254" width="64" height="64"><path d="M307.2 184.32h409.6c135.72096 0 245.76 110.03904 245.76 245.76v327.68a81.92 81.92 0 0 1-81.92 81.92h-136.704a122.88 122.88 0 0 1-104.20224-57.7536l-33.73056-53.98528a110.85824 110.85824 0 0 0-188.0064 0l-33.73056 53.98528A122.88 122.88 0 0 1 280.064 839.68H143.36a81.92 81.92 0 0 1-81.92-81.92V430.08C61.44 294.35904 171.47904 184.32 307.2 184.32z m-13.23008 187.392a50.42176 50.42176 0 0 1-45.13792 45.13792l-59.904 6.00064a27.8528 27.8528 0 0 0 0 55.41888l59.904 6.00064a50.42176 50.42176 0 0 1 45.13792 45.13792l6.00064 59.904a27.8528 27.8528 0 0 0 55.41888 0l6.00064-59.904a50.42176 50.42176 0 0 1 45.13792-45.13792l59.904-6.00064a27.8528 27.8528 0 0 0 0-55.41888l-59.904-6.00064a50.42176 50.42176 0 0 1-45.13792-45.13792l-6.00064-59.904a27.8528 27.8528 0 0 0-55.41888 0l-6.00064 59.904zM716.8 389.12a40.96 40.96 0 1 0 0-81.92 40.96 40.96 0 0 0 0 81.92z m0 204.8a40.96 40.96 0 1 0 0-81.92 40.96 40.96 0 0 0 0 81.92z m61.44-143.36a40.96 40.96 0 1 0 81.92 0 40.96 40.96 0 0 0-81.92 0z m-204.8 0a40.96 40.96 0 1 0 81.92 0 40.96 40.96 0 0 0-81.92 0z" p-id="6255" fill="#bfbfbf"></path></svg>
