<svg t="1638775770790" class="icon" viewBox="0 0 1117 1024" version="1.1" xmlns="http://www.w3.org/2000/svg" p-id="58589" width="128" height="128"><path d="M1010.688 679.284364a180.410182 180.410182 0 0 1 106.123636 173.149091 181.713455 181.713455 0 0 1-124.369454 161.233454 189.719273 189.719273 0 0 1-200.610909-50.548364 477.090909 477.090909 0 0 1-466.571637 0c-50.082909 54.830545-129.396364 74.845091-200.610909 50.548364A181.713455 181.713455 0 0 1 0.279273 852.433455a180.410182 180.410182 0 0 1 106.123636-173.149091c-54.178909-214.667636 59.019636-435.944727 267.822546-523.450182C387.072 66.466909 465.733818 0 558.545455 0s171.473455 66.466909 184.32 155.834182c208.709818 87.505455 321.908364 308.782545 267.729454 523.450182z m-98.676364-16.384c43.845818-160.768-32.581818-329.634909-184.32-406.714182A186.554182 186.554182 0 0 1 558.545455 361.937455a186.554182 186.554182 0 0 1-169.239273-105.751273c-151.738182 76.893091-228.352 245.946182-184.32 406.714182a187.485091 187.485091 0 0 1 130.048 71.400727c31.185455 40.401455 43.659636 91.694545 34.257454 141.405091a375.156364 375.156364 0 0 0 378.414546 0 177.152 177.152 0 0 1 34.164363-141.498182 187.485091 187.485091 0 0 1 130.141091-71.307636h0.093091z" p-id="58590" fill="#bfbfbf"></path></svg>
