<svg t="1639017745367" class="icon" viewBox="0 0 1024 1024" version="1.1" xmlns="http://www.w3.org/2000/svg" p-id="1310" width="48" height="48"><path d="M512 896c-6.4 0-16-3.2-22.4-9.6l-304-288-51.2-51.2C89.6 502.4 64 441.6 64 374.4s25.6-128 73.6-172.8S243.2 128 310.4 128s128 25.6 172.8 73.6L512 230.4l28.8-28.8c96-96 252.8-96 348.8 0 96 96 96 252.8 0 348.8l-51.2 51.2-300.8 288C528 892.8 521.6 896 512 896zM310.4 192c-48 0-92.8 19.2-128 54.4C147.2 281.6 128 326.4 128 374.4s19.2 92.8 54.4 128l51.2 51.2 281.6 265.6 278.4-265.6 51.2-51.2c70.4-70.4 70.4-185.6 0-256-70.4-70.4-185.6-70.4-256 0l-51.2 51.2c-12.8 12.8-32 12.8-44.8 0l-51.2-51.2C403.2 211.2 358.4 192 310.4 192z" p-id="1311" fill="#8a8a8a"></path></svg>
