<svg t="1640764958554" class="icon" viewBox="0 0 1024 1024" version="1.1" xmlns="http://www.w3.org/2000/svg" p-id="10979" width="64" height="64"><path d="M262 112h500c82.842 0 150 67.158 150 150v500c0 82.842-67.158 150-150 150H262c-82.842 0-150-67.158-150-150V262c0-82.842 67.158-150 150-150z m140 380c49.706 0 90-40.294 90-90s-40.294-90-90-90-90 40.294-90 90 40.294 90 90 90z m-1.126 165.596a60 60 0 0 0-58.428 5.916L202 762.158v2c0 33.138 26.862 60 60 60h500c33.138 0 60-26.862 60-60V560.002a60 60 0 0 0-23.324-47.486c-26.226-20.254-63.906-15.414-84.162 10.812l-127.944 165.656c-16.8 21.752-46.228 29.308-71.428 18.34l-114.268-49.728z" p-id="10980" fill="#54617B"></path></svg>
