<svg t="1640744245550" class="icon" viewBox="0 0 1024 1024" version="1.1" xmlns="http://www.w3.org/2000/svg" p-id="9800" width="64" height="64"><path d="M512.213333 85.333333c309.077333 0 583.381333 395.178667 416.213334 653.312-171.861333 265.386667-658.944 267.946667-832.469334 0-107.264-165.589333-37.717333-382.037333 106.453334-519.424l15.146666-13.909333C299.946667 132.608 403.797333 85.333333 512.213333 85.333333z m0 85.333334C263.125333 170.666667 37.546667 491.477333 167.594667 692.266667c139.733333 215.808 550.826667 213.674667 689.237333 0C984.106667 495.701333 758.485333 170.666667 512.213333 170.666667zM512 640a42.666667 42.666667 0 1 1 0 85.333333 42.666667 42.666667 0 0 1 0-85.333333z m0-341.333333a42.666667 42.666667 0 0 1 42.666667 42.666666v213.333334a42.666667 42.666667 0 0 1-85.333334 0V341.333333a42.666667 42.666667 0 0 1 42.666667-42.666666z" fill="#FBCC5C" p-id="9801"></path></svg>
