<svg t="1645587431273" class="icon" viewBox="0 0 1024 1024" version="1.1" xmlns="http://www.w3.org/2000/svg" p-id="2032" width="128" height="128"><path d="M853.728 755.424q0 22.848-16 38.848l-77.728 77.728q-16 16-38.848 16t-38.848-16l-168-168-168 168q-16 16-38.848 16t-38.848-16l-77.728-77.728q-16-16-16-38.848t16-38.848l168-168-168-168q-16-16-16-38.848t16-38.848l77.728-77.728q16-16 38.848-16t38.848 16l168 168 168-168q16-16 38.848-16t38.848 16l77.728 77.728q16 16 16 38.848t-16 38.848l-168 168 168 168q16 16 16 38.848z" p-id="2033" fill="#FF4D9D"></path></svg>