<svg t="1646791843905" class="icon" viewBox="0 0 1028 1024" version="1.1" xmlns="http://www.w3.org/2000/svg" p-id="7817" width="16" height="16"><path d="M833.66464 960c32 0 57.6-19.2 64-51.2l128-576c6.4-25.6-6.4-51.2-25.6-64-19.2-12.8-44.8-19.2-70.4-6.4l-204.8 102.4L571.26464 96c-25.6-38.4-89.6-38.4-108.8 0L296.06464 364.8 91.26464 262.4C72.06464 249.6 46.46464 256 27.26464 268.8 8.06464 281.6-4.73536 307.2 1.66464 332.8l128 576c6.4 32 38.4 57.6 76.8 51.2L513.66464 896 833.66464 960zM513.66464 768l-268.8 51.2-12.8-57.6L513.66464 704l281.6 57.6-12.8 57.6L513.66464 768zM513.66464 576l-313.6 64L155.26464 435.2l134.4 70.4c32 12.8 64 6.4 83.2-25.6L513.66464 249.6l134.4 230.4c19.2 25.6 51.2 38.4 83.2 25.6l134.4-70.4-44.8 198.4L513.66464 576z" p-id="7818" fill="#FF468B"></path></svg>
