<svg t="1648698084741" class="icon" viewBox="0 0 1024 1024" version="1.1" xmlns="http://www.w3.org/2000/svg" p-id="6086" width="16" height="16"><path d="M264.488 312.08L481.796 91.634A39.738 39.738 0 0 1 510 80c10.684 0 20.728 4.162 28.338 11.772L759.772 312.34A39.86 39.86 0 0 0 788 324a39.876 39.876 0 0 0 28.34-11.772c15.59-15.652 15.542-40.978-0.112-56.568L594.852 35.148C572.188 12.482 542.052 0 510 0s-62.188 12.482-84.852 35.148l-0.202 0.204-217.432 220.566c-15.508 15.732-15.328 41.058 0.406 56.568 15.732 15.508 41.06 15.328 56.568-0.406z" p-id="6087" fill="#A197AA"></path><path d="M472 240v490c0 22.092 17.908 40 40 40s40-17.908 40-40V240c0-22.092-17.908-40-40-40s-40 17.908-40 40zM984 824c-22.092 0-40 17.908-40 40 0 44.112-35.888 80-80 80H160c-44.112 0-80-35.888-80-80 0-22.092-17.908-40-40-40s-40 17.908-40 40c0 88.224 71.776 160 160 160h704c88.224 0 160-71.776 160-160 0-22.092-17.908-40-40-40z" p-id="6088" fill="#A197AA"></path></svg>
