<svg t="1638774140897" class="icon" viewBox="0 0 1024 1024" version="1.1" xmlns="http://www.w3.org/2000/svg" p-id="24651" width="128" height="128"><path d="M512 256m-170.666667 0a170.666667 170.666667 0 1 0 341.333334 0 170.666667 170.666667 0 1 0-341.333334 0Z" p-id="24652" fill="#02A6F5"></path><path d="M512 469.333333c-117.333333 0-213.333333-96-213.333333-213.333333S394.666667 42.666667 512 42.666667s213.333333 96 213.333333 213.333333-96 213.333333-213.333333 213.333333z m0-341.333333c-70.4 0-128 57.6-128 128s57.6 128 128 128 128-57.6 128-128-57.6-128-128-128zM896 981.333333c-23.466667 0-42.666667-19.2-42.666667-42.666666 0-187.733333-153.6-341.333333-341.333333-341.333334S170.666667 750.933333 170.666667 938.666667c0 23.466667-19.2 42.666667-42.666667 42.666666s-42.666667-19.2-42.666667-42.666666c0-234.666667 192-426.666667 426.666667-426.666667s426.666667 192 426.666667 426.666667c0 23.466667-19.2 42.666667-42.666667 42.666666z" p-id="24653" fill="#02A6F5"></path></svg>
