<svg t="1651829697926" class="icon" viewBox="0 0 1024 1024" version="1.1" xmlns="http://www.w3.org/2000/svg" p-id="7178" width="32" height="32"><path d="M295.210667 262.613333a65.024 65.024 0 1 0-130.090667 0 65.024 65.024 0 0 0 130.090667 0zM793.856 197.546667h-346.88a65.024 65.024 0 1 0 0 130.090666h346.88a65.024 65.024 0 1 0 0-130.090666z m0 249.429333h-346.88a65.024 65.024 0 1 0 0 130.048h346.88a65.024 65.024 0 1 0 0-130.048z m-346.88 249.386667h346.88a65.024 65.024 0 1 1 0 130.090666h-346.88a65.024 65.024 0 1 1 0-130.133333z m-216.832-249.429334a65.024 65.024 0 1 1 0 130.133334 65.024 65.024 0 0 1 0-130.133334z m65.066667 314.453334a65.024 65.024 0 1 0-130.090667 0 65.024 65.024 0 0 0 130.090667 0z" p-id="7179" fill="#8246F5"></path></svg>
